inDegrees=no
num_controls=7
num_derivatives=13
num_iterations=149
num_multipliers=7
num_parameters=0
num_slacks=7
num_states=26
objective=6.577886
objective_accelerations=0.677592
objective_balance=0.070455
objective_effort=0.546145
objective_height=5.188414
objective_ligament=0.095279
solver_duration=1278.840191
status=Solve_Succeeded
success=true
DataType=double
version=3
OpenSimVersion=4.4-2022-07-23-0e9fedc
endheader
time	/jointset/ground_pelvis/pelvis_tilt/value	/jointset/ground_pelvis/pelvis_tx/value	/jointset/ground_pelvis/pelvis_ty/value	/jointset/hip_r/hip_flexion_r/value	/jointset/hip_r/hip_adduction_r/value	/jointset/hip_r/hip_rotation_r/value	/jointset/back/lumbar_extension/value	/jointset/patellofemoral_r/patellar_flexion_r/value	/jointset/knee_r/knee_flexion_r/value	/jointset/knee_r/knee_adduction_r/value	/jointset/knee_r/knee_rotation_r/value	/jointset/ankle_r/ankle_angle_r/value	/jointset/subtalar_r/subtalar_angle_r/value	/jointset/ground_pelvis/pelvis_tilt/speed	/jointset/ground_pelvis/pelvis_tx/speed	/jointset/ground_pelvis/pelvis_ty/speed	/jointset/hip_r/hip_flexion_r/speed	/jointset/hip_r/hip_adduction_r/speed	/jointset/hip_r/hip_rotation_r/speed	/jointset/back/lumbar_extension/speed	/jointset/patellofemoral_r/patellar_flexion_r/speed	/jointset/knee_r/knee_flexion_r/speed	/jointset/knee_r/knee_adduction_r/speed	/jointset/knee_r/knee_rotation_r/speed	/jointset/ankle_r/ankle_angle_r/speed	/jointset/subtalar_r/subtalar_angle_r/speed	/forceset/tau_hip_flexion_r	/forceset/tau_hip_adduction_r	/forceset/tau_hip_rotation_r	/forceset/tau_knee_flexion_r	/forceset/tau_ankle_angle_r	/forceset/tau_subtalar_angle_r	/forceset/tau_lumbar_extension	lambda_cid13_p0	lambda_cid14_p0	lambda_cid14_p1	lambda_cid14_p2	lambda_cid14_p3	lambda_cid14_p4	lambda_cid14_p5	/jointset/ground_pelvis/pelvis_tilt/accel	/jointset/ground_pelvis/pelvis_tx/accel	/jointset/ground_pelvis/pelvis_ty/accel	/jointset/hip_r/hip_flexion_r/accel	/jointset/hip_r/hip_adduction_r/accel	/jointset/hip_r/hip_rotation_r/accel	/jointset/back/lumbar_extension/accel	/jointset/patellofemoral_r/patellar_flexion_r/accel	/jointset/knee_r/knee_flexion_r/accel	/jointset/knee_r/knee_adduction_r/accel	/jointset/knee_r/knee_rotation_r/accel	/jointset/ankle_r/ankle_angle_r/accel	/jointset/subtalar_r/subtalar_angle_r/accel	gamma_cid13_p0	gamma_cid14_p0	gamma_cid14_p1	gamma_cid14_p2	gamma_cid14_p3	gamma_cid14_p4	gamma_cid14_p5
1	-0.3316924301264528	-0.006768750842146133	0.6419247309263983	1.531868420595473	-0.246388025439061	0.04863122890572141	-0.4363322492625729	1.438799354081391	1.438799354081338	0.02859935178832509	0.174532087630408	0.4363292178834222	0.08379583626195916	-5.049845961778796e-05	0.003464810531646159	0.01565501885216966	-0.04175605130552392	-0.0004991887522142748	-0.01341195641278614	-6.176445849096516e-05	-0.04635303390710805	-0.04635303390711158	-0.0006417002793241688	4.362742872983007e-06	-0.006386975919621658	-0.002815395522188925	-0.307012243314946	0.006560940733139716	0.01828899359490208	-0.5043493769952215	-0.006670307472931682	0.004601515616816199	0.3161059885265484	-0.04352167248182553	-51.75906470223686	-6.862409297718334	1.323531586038333	16.87114383276945	-810.7100569772356	64.83984798547537	1.435408861698884	0.1065727150485117	1.910743109045926	-5.906640280462172	-0.06768383617383625	-1.317934362745081	-0.02419805104943114	-5.44113892272531	-5.441138922725449	0.2064750604805505	0.01020142694123295	-1.217296775211778	-0.5181565647140902	8.944198646883779e-10	-7.468437841553676e-10	1.365566179462733e-08	7.231101798539978e-09	8.412348902491946e-10	-4.037984197935635e-09	1.617148381279873e-08
1.01	-0.3316222263908216	-0.006728812611531214	0.6421766601495424	1.5311568027226	-0.2463961979950738	0.04843195625689381	-0.4363322904960923	1.43806379132024	1.438063791320232	0.02860368826083083	0.1745320734604093	0.436204336239096	0.08374205788622166	0.01405589179221096	0.004522657130452924	0.03472830192475657	-0.1005338979048775	-0.001133292122864378	-0.02644186361898142	0.0001524663253104632	-0.1007805976814451	-0.1007805976814462	0.001513349444744934	-6.775208488480725e-06	-0.01860987182175621	-0.007942919891973474	-0.3077631897334949	0.006821464989319561	0.01829300421232267	-0.5035247550059898	-0.007879248931262069	0.004701337901750753	0.31677481991845	-0.04354238187827959	-52.15995634164861	-6.886039040525983	1.323631436485004	17.16809253340396	-810.9720517426257	64.7403802912679	1.39295132968831	0.1053637979194168	1.905240746824072	-5.858312910757841	-0.06096639973917743	-1.295413565208263	0.05907593473839622	-5.446727315920661	-5.446727315920278	0.2206756046054562	-0.006703358623226965	-1.227865165909042	-0.5104397978745021	1.530084080522448e-09	-9.816061017282858e-10	3.081592502065192e-08	1.409061578075519e-08	-3.139649658637218e-10	-7.870164710444566e-09	3.573369473768372e-08
1.02	-0.3314120193081203	-0.006678301281804021	0.6426192461715033	1.529858415171503	-0.2464106501472464	0.04810240560288652	-0.4363272209638173	1.436783320479119	1.436783320479165	0.02862970636577971	0.1745319615204295	0.4359566098021069	0.08363692638183194	0.02795017095457627	0.005579430354100755	0.05378637861568041	-0.1591099869476755	-0.001755107982648905	-0.03946755745124418	0.0009603887748497145	-0.1553346499010929	-0.1553346499010909	0.003694626218236703	-1.519125778507975e-05	-0.0309559344516796	-0.01308602125231337	-0.3085141361520908	0.007081989245479385	0.01829701482988855	-0.5027001330167565	-0.009088190389590901	0.004801160186648601	0.3174436513103098	-0.04357018229850374	-52.5701561304379	-6.909789296620903	1.322026605075412	17.48465831686508	-811.3827122973109	64.64292528232262	1.392986643806248	0.1063580400166823	1.907701832713312	-5.86628876915107	-0.06522633400071745	-1.317091687958581	0.09454028209829624	-5.466436611787482	-5.466436611787481	0.2117204703650791	0.01074580735419852	-1.241930120769628	-0.5212719628251783	1.79229500955022e-09	-1.341659208763603e-09	4.497456656825436e-08	2.114801382951865e-08	-1.034387291829199e-09	-9.98215854067349e-09	4.904031842928543e-08
1.03	-0.3310640352552292	-0.006617073681639881	0.6432522392988324	1.527975415972883	-0.2464312451510794	0.04764268389613224	-0.4363104028001853	1.434956923819966	1.434956923819961	0.02867764748488825	0.1745317780466369	0.4355850438026415	0.0834804080186705	0.04159805908163533	0.006681290288865047	0.07279969165020296	-0.2174394618052453	-0.00236093861858957	-0.05246879533118352	0.002575732084379938	-0.209941305867379	-0.2099413058673816	0.00589751024830249	-2.036138649080672e-05	-0.04335456650930889	-0.0182090880918471	-0.309314870912925	0.007279715392123541	0.01832209433172092	-0.5015623372060212	-0.009967660264378793	0.004900446850289853	0.3182919737766525	-0.0435953553729651	-52.84975979436262	-6.903377238788838	1.307013655091451	17.5048947814061	-811.5677854450751	64.55050500339971	1.343403268186919	0.114379707169456	1.896260330834576	-5.808717977645212	-0.05781263785187133	-1.290444191014772	0.2209045747896063	-5.457274091512457	-5.457274091513204	0.2251645446030703	-0.005967826577852843	-1.238427518823445	-0.5065267000174952	2.050695190753436e-09	-1.702990793242415e-09	5.910257932321981e-08	2.820743110345096e-08	-1.750373112385006e-09	-1.207659944557302e-08	6.228310959809849e-08
1.04	-0.3305810296468611	-0.006544371534735729	0.6440749884149083	1.525510633798973	-0.2464578087031691	0.04705318893998602	-0.4362722565595518	1.432584561800658	1.4325845618006	0.02874773587930924	0.1745315789908316	0.435089571928487	0.08327291845601235	0.05495448204994576	0.007874339702102941	0.09173757636522813	-0.2754665820062289	-0.002948817632966612	-0.06542220733125591	0.005226004170276883	-0.2645277219321966	-0.2645277219322039	0.008124081289405474	-1.830765899222197e-05	-0.05573710938949308	-0.02328026115138278	-0.3101156056737363	0.007477441538750003	0.01834717383371828	-0.5004245413952834	-0.01084713013917517	0.004999733513894399	0.3191402962430193	-0.04362785549528353	-53.13883932168056	-6.897151754399071	1.290348474345286	17.54484421897707	-811.9040860041076	64.46029239256929	1.334693612056586	0.1245959357113514	1.892616168813836	-5.805817837833841	-0.06163600968798344	-1.307526511985191	0.3015260373715878	-5.46238863149381	-5.46238863149384	0.2164578725725078	0.01219057859503547	-1.238712285280703	-0.510893206825576	2.378190295886325e-09	-1.137825739553197e-09	7.416970980165781e-08	3.3810085591948e-08	-4.581465501220154e-09	-1.482132915644595e-08	7.797594295630522e-08
1.05	-0.3299657996180582	-0.006459292090304927	0.6450866775354382	1.522467141037444	-0.2464901329986788	0.04633442068537121	-0.4362027422188252	1.4296664932395	1.429666493239458	0.02884018233029528	0.1745314293154935	0.4344702504359784	0.08301500190430765	0.06805170431145294	0.009155834724177348	0.1105812199038943	-0.3331737920978716	-0.003510187420028723	-0.07831870259654952	0.00882230322402658	-0.3190771414960937	-0.3190771414961004	0.01036917059729767	-1.194940014123065e-05	-0.06813509296887568	-0.02829195509271375	-0.310413004533424	0.007632680574453509	0.01839212171845329	-0.4990742924016389	-0.01146791522375703	0.005090588334153842	0.3195679310484137	-0.04367354720775356	-53.31576823765218	-6.86969443095492	1.264293495520755	17.54941590002974	-811.7293844043013	64.38078221543512	1.291264083830116	0.1320675913237595	1.877380725672614	-5.744445700629512	-0.05250147786921549	-1.278804018003172	0.4104977266045337	-5.449891843326474	-5.449891843326375	0.229136745508555	-0.005176492085346747	-1.241530489000432	-0.4946243915874668	2.707844617392015e-09	-5.437076659212325e-10	8.926618770895434e-08	3.936721624340019e-08	-7.478654970314018e-09	-1.758638039250554e-08	9.37453401329305e-08
1.06	-0.3292207918565156	-0.006360969434479904	0.64628623154721	1.518848321553854	-0.2465278937949923	0.04548706888126909	-0.4360929017101069	1.426203195837805	1.426203195837768	0.02895520013145091	0.1745313362344013	0.4337267112887294	0.08270730503242846	0.08091002859826305	0.01052298198094682	0.1293105546137261	-0.3905319264215132	-0.004036117793239712	-0.09113891722991707	0.01329123776688984	-0.3735734900395452	-0.3735734900395515	0.012638351329635	-6.988805909828156e-06	-0.08058064033759572	-0.03323632518607007	-0.3107104033930144	0.007787919610148991	0.0184370696033128	-0.4977240434079918	-0.01208870030835496	0.005181443154391278	0.3199955658539043	-0.0437267900958271	-53.50231760271348	-6.842519673705334	1.236682327359828	17.57285409864725	-811.7085949544879	64.30383960843209	1.286914017117226	0.1417263826503102	1.869754403046971	-5.736002684233651	-0.05454812691772609	-1.292270385599951	0.4760531351943006	-5.45177442740473	-5.45177442740479	0.2212761574615111	0.01191104567103487	-1.248225043148283	-0.4974284372306154	2.756928657814102e-09	-3.530318206755569e-10	1.021304726201826e-07	4.311787379928588e-08	-9.440740781579897e-09	-1.99450353192055e-08	1.054648684805639e-07
1.07	-0.3283483546023809	-0.00624851446888312	0.6476724241798709	1.51465777918721	-0.2465707212898438	0.04451191296728155	-0.435934032926924	1.422195336499465	1.422195336499435	0.02909299627173179	0.174531302009084	0.4328584706198262	0.08235053737358376	0.0935384912628717	0.01198551255886073	0.1479003263832489	-0.4475040589443915	-0.004521716297365924	-0.1038737102779241	0.01862953176762665	-0.4279761230093434	-0.4279761230093447	0.01492545202120286	-9.820431532485307e-08	-0.09307628844856439	-0.03810214994527766	-0.3106302842778982	0.007888041435980764	0.01850070214520809	-0.4961008306190194	-0.01244638782562588	0.005270737755947801	0.3201343874936139	-0.04378856482493036	-53.57376819370651	-6.789274003540871	1.197380953657261	17.49654194157364	-811.2088496819533	64.23824903763638	1.244973214178551	0.1511393105935391	1.849437244179271	-5.666945233437072	-0.04440634876356633	-1.261306314761095	0.5847694672102879	-5.431170097707271	-5.43117009770651	0.2331240755681705	-0.004941991456020037	-1.251558303409967	-0.4788770793380763	2.791088747114719e-09	-1.838156684291543e-10	1.148760238614072e-07	4.677244236072654e-08	-1.135308703657832e-08	-2.228207342093952e-08	1.169689782734637e-07
1.08	-0.3273508005569918	-0.006120909614461087	0.6492436842662811	1.509899690155914	-0.2466181728970601	0.04340996461274774	-0.4357173708167915	1.417644118358239	1.417644118358214	0.02925380282901442	0.1745313326779908	0.4318650087481457	0.08194556795033177	0.1059333868493193	0.01355295974599684	0.1663240453637165	-0.504041259352159	-0.004960940265628164	-0.1164974053403355	0.0248499031562388	-0.4822452506167392	-0.4822452506167352	0.01724043473532533	5.990042892019836e-06	-0.1056248808930862	-0.04287667806737598	-0.3105501651627635	0.007988163261806113	0.01856433468720636	-0.4944776178300459	-0.01280407534290118	0.005360032357489447	0.3202732091333432	-0.04385817597700004	-53.65502538616851	-6.736452105526094	1.156669973847346	17.43860106269312	-810.8658562656157	64.17570240067074	1.240200601485085	0.1627097044946869	1.836543845235934	-5.649016261211509	-0.04527321974486247	-1.270050788480759	0.6524686127693813	-5.425073354924268	-5.425073354924267	0.2268525619723928	0.01175057479343298	-1.258813909859014	-0.4791691098086695	2.686550431036066e-09	-2.408792602278443e-10	1.247658914166638e-07	4.825204062514477e-08	-1.255734147296599e-08	-2.46891393863031e-08	1.248083115149452e-07
